<?xml version="1.0" standalone="no"?>
<!DOCTYPE svg PUBLIC "-//W3C//DTD SVG 20010904//EN"
 "http://www.w3.org/TR/2001/REC-SVG-20010904/DTD/svg10.dtd">
<svg version="1.0" xmlns="http://www.w3.org/2000/svg"
 width="650.000000pt" height="650.000000pt" viewBox="0 0 650.000000 650.000000"
 preserveAspectRatio="xMidYMid meet">
<metadata>
Created by potrace 1.14, written by Peter Selinger 2001-2017
</metadata>
<g transform="translate(0.000000,650.000000) scale(0.100000,-0.100000)"
fill="#000000" stroke="none">
<path d="M3178 6448 c17 -24 33 -56 36 -71 7 -28 6 -28 -31 -21 -21 3 -53 15
-71 25 -18 10 -35 19 -38 19 -2 0 -4 -40 -4 -90 0 -49 2 -90 5 -90 3 0 22 8
43 19 20 10 52 22 70 26 32 7 33 6 26 -22 -11 -49 -56 -144 -75 -156 -23 -17
-56 -75 -64 -114 -8 -39 9 -96 39 -138 21 -29 22 -31 4 -47 -10 -10 -18 -31
-18 -47 0 -29 -1 -29 -35 -18 -37 11 -44 21 -21 30 8 3 22 19 30 35 13 26 13
32 -2 63 -31 61 -107 65 -142 7 -14 -23 -16 -37 -9 -56 5 -14 8 -26 6 -28 -2
-3 -25 3 -50 13 l-46 17 29 18 c60 36 47 119 -22 140 -34 10 -42 9 -66 -9 -31
-23 -42 -58 -30 -91 7 -21 6 -23 -14 -16 -39 12 -83 33 -71 34 23 0 53 43 53
74 -1 35 -15 57 -48 75 -29 15 -87 -1 -102 -29 -14 -26 -13 -73 2 -88 9 -9 2
-11 -30 -9 -46 2 -48 4 -27 31 29 39 17 89 -27 112 -50 26 -113 -1 -118 -51
-4 -39 0 -54 22 -75 l22 -20 -21 0 c-12 0 -29 -3 -39 -7 -11 -4 -15 -3 -10 5
9 15 -19 81 -38 88 -67 26 -126 -11 -126 -77 0 -11 14 -34 31 -52 l31 -30 -24
-18 c-22 -18 -23 -17 -26 1 -5 28 -50 60 -84 60 -17 0 -39 -10 -53 -25 -48
-47 -22 -122 46 -134 l36 -6 -14 -34 c-13 -30 -15 -32 -31 -18 -71 63 -181
-31 -123 -105 27 -34 64 -43 102 -24 29 14 29 14 30 -17 0 -18 2 -42 5 -55 4
-20 2 -22 -17 -11 -45 24 -109 -20 -109 -76 0 -68 101 -107 141 -54 l17 23 12
-29 c7 -17 16 -38 21 -47 8 -15 4 -18 -21 -18 -41 0 -80 -39 -80 -80 0 -73 86
-105 140 -52 l28 28 17 -29 c17 -28 17 -31 1 -43 -16 -11 -14 -16 17 -65 22
-35 36 -71 40 -104 4 -42 11 -55 45 -85 48 -43 95 -146 72 -160 -31 -19 -15
-80 20 -80 11 0 20 -4 20 -10 0 -5 -7 -10 -15 -10 -18 0 -18 -8 -4 -66 9 -37
15 -44 35 -44 19 0 23 -5 21 -21 -2 -11 -8 -24 -13 -27 -5 -4 -14 -20 -19 -37
-8 -23 -26 -38 -80 -66 -39 -19 -87 -52 -107 -73 l-37 -38 -7 26 c-3 14 -7 26
-9 26 -2 0 -18 -15 -37 -32 -18 -18 -54 -47 -80 -65 -28 -19 -56 -49 -69 -74
l-21 -43 -17 23 -17 22 -39 -44 c-61 -67 -91 -109 -99 -140 l-7 -28 -23 28
c-14 16 -26 26 -28 23 -26 -30 -99 -164 -104 -188 -7 -37 -7 -37 -38 -17 -22
15 -23 14 -48 -48 -15 -35 -30 -80 -33 -100 -6 -32 -9 -35 -22 -22 -8 8 -17
15 -21 15 -10 0 -52 -113 -59 -156 -5 -31 -9 -35 -29 -30 -20 5 -24 2 -31 -31
-4 -21 -8 -41 -9 -45 -1 -5 -2 -33 -3 -63 -1 -52 -2 -55 -20 -45 -32 17 -36
12 -40 -48 -1 -31 -4 -68 -6 -82 -2 -14 -3 -35 -4 -48 -1 -19 -4 -21 -20 -13
-15 8 -20 7 -26 -7 -12 -32 -17 -157 -7 -198 8 -37 7 -41 -8 -37 -13 4 -19 -4
-23 -34 -11 -63 -8 -135 8 -187 13 -44 13 -47 -1 -42 -14 5 -15 -3 -10 -71 8
-103 24 -170 49 -200 6 -9 6 -13 -2 -14 -10 -1 -26 -5 -35 -8 -8 -3 34 -174
48 -197 16 -23 15 -24 -4 -24 -17 0 -20 -4 -14 -22 17 -58 57 -128 90 -157 38
-35 39 -39 4 -46 -12 -2 -25 -6 -27 -9 -9 -9 89 -137 128 -168 45 -36 49 -48
14 -48 -14 0 -25 -4 -25 -10 0 -24 75 -124 120 -159 l50 -39 -33 -12 -32 -11
60 -55 c33 -31 82 -67 109 -81 35 -18 45 -27 36 -33 -8 -5 -18 -6 -22 -4 -4 3
-8 2 -8 -3 0 -29 187 -153 230 -153 9 0 8 -6 -4 -19 -16 -17 -15 -19 21 -42
43 -28 109 -58 138 -64 11 -2 22 -4 25 -4 3 -1 -6 -7 -20 -14 -23 -12 -30 -10
-90 31 -114 79 -125 87 -130 93 -15 17 -195 131 -255 161 -180 91 -417 102
-560 26 -134 -71 -242 -231 -188 -280 83 -75 90 -86 128 -183 81 -214 136
-289 228 -314 129 -36 173 -13 220 114 15 39 32 84 38 100 7 17 20 50 29 74 9
25 21 46 27 48 6 2 62 -38 124 -89 242 -199 385 -288 649 -406 124 -55 392
-133 540 -156 193 -31 571 -28 743 5 28 5 66 12 82 15 153 26 409 116 594 209
181 91 300 170 519 349 51 42 97 76 101 76 5 0 34 -66 65 -147 32 -82 67 -158
78 -170 42 -45 112 -49 200 -11 79 34 115 87 197 293 45 111 78 163 107 171
66 17 43 121 -48 216 -118 124 -310 167 -522 117 -110 -27 -217 -83 -396 -210
-218 -154 -210 -149 -231 -136 -21 13 -16 27 10 27 23 0 135 56 151 75 10 11
10 18 1 29 -10 11 -3 17 35 30 42 14 126 70 178 118 18 16 18 17 -8 24 -27 6
-26 7 27 38 31 17 81 54 112 82 l57 51 -33 12 c-33 12 -33 13 -14 27 65 48 88
72 120 124 19 32 35 60 35 64 0 3 -14 6 -31 6 l-32 0 55 52 c30 29 71 78 91
108 l37 55 -30 8 c-38 10 -38 16 1 47 32 26 61 75 85 142 12 36 12 38 -8 38
-16 0 -18 3 -9 13 12 16 51 161 51 194 0 13 -3 22 -7 22 -29 -5 -31 3 -13 46
20 48 29 93 34 187 3 46 1 55 -11 51 -14 -6 -12 20 7 72 9 24 5 170 -5 185 -4
6 -13 9 -21 6 -11 -4 -13 0 -7 22 10 34 9 145 0 195 -7 33 -10 36 -27 27 -16
-9 -20 -7 -22 7 -7 86 -20 188 -25 193 -2 2 -13 -1 -23 -8 -11 -7 -21 -12 -22
-12 -2 0 -3 23 -2 50 1 67 -16 150 -30 150 -7 0 -17 -5 -24 -12 -9 -9 -12 -7
-12 11 0 13 -14 62 -32 107 -30 80 -32 83 -50 68 -19 -18 -20 -17 -32 37 -3
14 -17 51 -31 83 l-26 59 -24 -23 -25 -23 0 22 c0 34 -100 211 -119 211 -4 0
-13 -11 -22 -25 l-15 -26 -22 48 c-29 65 -124 167 -140 151 -7 -7 -12 -19 -12
-27 0 -9 -12 4 -26 29 -28 49 -42 64 -94 99 -19 13 -49 38 -67 54 l-32 30 -7
-27 -6 -27 -37 36 c-20 20 -68 53 -105 73 -62 34 -71 42 -87 86 -20 54 -18 66
11 66 13 0 22 11 29 38 15 51 14 63 -6 78 -17 13 -17 13 2 14 47 1 65 41 34
75 -17 20 -17 22 6 78 14 36 38 71 60 90 30 26 39 42 45 83 5 28 23 75 41 104
30 49 31 54 15 65 -16 12 -16 15 3 46 12 19 21 29 21 22 0 -23 43 -53 77 -53
101 0 112 152 11 154 l-35 1 20 48 c20 47 20 48 39 27 46 -49 138 -13 138 54
-1 53 -48 92 -98 81 -27 -5 -27 -5 -24 40 4 45 17 56 39 34 15 -15 67 -2 89
22 38 42 14 121 -41 131 -29 6 -85 -16 -86 -34 0 -12 -26 47 -28 65 -1 4 10 7
24 7 36 0 75 42 75 80 0 86 -120 109 -153 30 l-12 -28 -27 23 -27 23 23 6 c57
14 60 112 4 139 -17 8 -38 13 -47 12 -9 -2 -22 -4 -29 -4 -17 -1 -51 -60 -47
-82 3 -16 0 -18 -23 -13 -34 8 -39 13 -25 22 42 26 26 114 -24 133 -75 28
-143 -53 -98 -118 13 -19 13 -22 -1 -27 -9 -3 -27 -6 -42 -6 -20 0 -23 3 -14
12 19 19 14 72 -8 96 -66 70 -179 -8 -131 -91 8 -15 24 -30 36 -34 18 -6 17
-7 -10 -18 -16 -7 -41 -16 -53 -20 -21 -6 -22 -5 -14 12 19 37 -7 95 -49 108
-32 11 -89 -14 -100 -43 -15 -39 -1 -81 33 -102 l31 -18 -34 -10 c-19 -5 -41
-13 -51 -17 -14 -6 -16 -1 -11 33 5 34 1 45 -20 66 -33 33 -77 34 -111 4 -38
-35 -38 -76 0 -115 28 -28 27 -32 -5 -38 -11 -2 -26 -7 -31 -10 -6 -4 -10 7
-10 24 0 18 -9 40 -21 52 -19 19 -19 22 -4 39 8 9 24 40 34 68 17 47 18 55 4
94 -8 24 -30 62 -49 85 -37 45 -68 107 -79 161 -7 32 -6 33 25 27 18 -3 49
-15 71 -25 21 -11 40 -20 43 -20 3 0 5 41 4 90 0 50 -2 90 -4 90 -2 0 -20 -9
-41 -19 -52 -27 -103 -34 -103 -15 0 21 28 74 53 102 l20 22 -112 0 -112 0 29
-42z m-409 -752 c86 -35 195 -76 244 -91 l87 -27 0 -55 0 -56 -37 7 c-79 13
-101 18 -202 47 -167 49 -236 40 -306 -37 -27 -30 -36 -33 -93 -35 -77 -3
-132 -28 -164 -75 -12 -18 -26 -34 -29 -34 -14 0 -43 130 -43 190 0 79 22 130
78 183 99 96 197 92 465 -17z m1414 48 c108 -70 139 -194 90 -351 l-17 -53
-30 36 c-39 48 -97 74 -167 74 -49 0 -59 4 -85 31 -16 17 -51 42 -78 55 -54
25 -86 25 -186 -2 -30 -9 -86 -24 -125 -34 -38 -11 -91 -22 -117 -25 l-48 -6
0 54 0 55 88 27 c48 15 148 52 222 82 152 63 207 81 265 90 22 3 41 6 43 8 10
9 114 -21 145 -41z m-1899 -5027 c3 4 6 2 6 -4 0 -22 -28 -21 -69 3 -22 14
-41 27 -41 29 0 2 22 -5 49 -15 27 -11 51 -16 55 -13z m2011 7 c-38 -30 -52
-34 -69 -21 -15 11 -14 13 9 15 15 1 34 6 43 12 27 15 39 11 17 -6z m-1795
-125 c0 -15 -27 -16 -51 -3 -23 13 -23 13 13 11 21 -1 38 -5 38 -8z m1561 -3
c-14 -8 -31 -12 -38 -9 -24 9 -13 19 25 21 36 2 37 2 13 -12z m-1194 -87 c-20
-36 -25 -39 -52 -34 -52 11 -59 13 -120 31 l-60 18 95 8 c52 4 102 9 110 12
46 12 49 8 27 -35z m858 26 c11 -2 49 -4 85 -5 64 -1 68 -12 9 -24 -13 -3 -49
-12 -79 -20 -76 -22 -77 -21 -100 25 l-21 40 43 -6 c24 -3 52 -8 63 -10z
m-529 -26 c0 -13 4 -38 8 -56 l7 -32 -78 4 c-43 3 -96 8 -118 12 -22 4 -46 6
-52 4 -7 -1 -13 3 -13 9 0 5 12 10 28 11 56 1 124 26 171 61 30 23 45 19 47
-13z m299 -45 c22 -5 43 -8 47 -9 13 0 18 -12 6 -12 -7 0 -35 -3 -63 -7 -27
-4 -80 -9 -117 -11 l-68 -5 6 48 c9 75 7 74 81 37 37 -18 86 -37 108 -41z"/>
</g>
</svg>
